<svg width="195" height="50" viewBox="0 0 195 50" fill="none" xmlns="http://www.w3.org/2000/svg">
<path d="M40.5296 25C40.5296 22.6609 40.0867 20.3514 39.2329 18.2057C38.3793 16.0604 37.1357 14.1302 35.587 12.518C34.0389 10.9064 32.2176 9.64485 30.2351 8.79001C28.2534 7.9355 26.1407 7.5 24.0148 7.5C21.8888 7.5 19.7761 7.9355 17.7944 8.79001C15.812 9.64486 13.9906 10.9064 12.4426 12.518C10.8939 14.1302 9.65024 16.0604 8.79665 18.2057C7.94289 20.3514 7.5 22.6609 7.5 25" stroke="#F54748" stroke-width="15"/>
<path d="M24.6005 41.0714L41.8471 12.5H7.35385L24.6005 41.0714Z" fill="#F54748"/>
<ellipse cx="24.1612" cy="10.1191" rx="16.5468" ry="7.14286" fill="#F54748"/>
<rect width="1.63816" height="24.453" transform="matrix(0.842633 -0.538488 0.526198 0.850362 11.1288 11.0012)" fill="white"/>
<ellipse cx="30.7506" cy="10.7142" rx="3.22149" ry="3.27381" fill="white"/>
<ellipse cx="24.1612" cy="10.2679" rx="1.61075" ry="1.6369" fill="white"/>
<path d="M65.391 28V11.2H72.663C74.167 11.2 75.463 11.448 76.551 11.944C77.639 12.424 78.479 13.12 79.071 14.032C79.663 14.944 79.959 16.032 79.959 17.296C79.959 18.544 79.663 19.624 79.071 20.536C78.479 21.448 77.639 22.152 76.551 22.648C75.463 23.128 74.167 23.368 72.663 23.368H67.551L69.279 21.616V28H65.391ZM69.279 22.048L67.551 20.2H72.447C73.647 20.2 74.543 19.944 75.135 19.432C75.727 18.92 76.023 18.208 76.023 17.296C76.023 16.368 75.727 15.648 75.135 15.136C74.543 14.624 73.647 14.368 72.447 14.368H67.551L69.279 12.52V22.048ZM82.7051 28V15.088H86.4491V28H82.7051ZM84.5771 13.288C83.8891 13.288 83.3291 13.088 82.8971 12.688C82.4651 12.288 82.2491 11.792 82.2491 11.2C82.2491 10.608 82.4651 10.112 82.8971 9.712C83.3291 9.312 83.8891 9.112 84.5771 9.112C85.2651 9.112 85.8251 9.304 86.2571 9.688C86.6891 10.056 86.9051 10.536 86.9051 11.128C86.9051 11.752 86.6891 12.272 86.2571 12.688C85.8411 13.088 85.2811 13.288 84.5771 13.288ZM89.0359 28V25.744L96.6679 16.72L97.3159 17.968H89.2039V15.088H100.34V17.344L92.7079 26.368L92.0359 25.12H100.556V28H89.0359ZM102.067 28V25.744L109.699 16.72L110.347 17.968H102.235V15.088H113.371V17.344L105.739 26.368L105.067 25.12H113.587V28H102.067ZM123.906 28V25.48L123.666 24.928V20.416C123.666 19.616 123.418 18.992 122.922 18.544C122.442 18.096 121.698 17.872 120.69 17.872C120.002 17.872 119.322 17.984 118.65 18.208C117.994 18.416 117.434 18.704 116.97 19.072L115.626 16.456C116.33 15.96 117.178 15.576 118.17 15.304C119.162 15.032 120.17 14.896 121.194 14.896C123.162 14.896 124.69 15.36 125.778 16.288C126.866 17.216 127.41 18.664 127.41 20.632V28H123.906ZM119.97 28.192C118.962 28.192 118.098 28.024 117.378 27.688C116.658 27.336 116.106 26.864 115.722 26.272C115.338 25.68 115.146 25.016 115.146 24.28C115.146 23.512 115.33 22.84 115.698 22.264C116.082 21.688 116.682 21.24 117.498 20.92C118.314 20.584 119.378 20.416 120.69 20.416H124.122V22.6H121.098C120.218 22.6 119.61 22.744 119.274 23.032C118.954 23.32 118.794 23.68 118.794 24.112C118.794 24.592 118.978 24.976 119.346 25.264C119.73 25.536 120.25 25.672 120.906 25.672C121.53 25.672 122.09 25.528 122.586 25.24C123.082 24.936 123.442 24.496 123.666 23.92L124.242 25.648C123.97 26.48 123.474 27.112 122.754 27.544C122.034 27.976 121.106 28.192 119.97 28.192ZM134.927 28V13.288H129.167V11.2H143.063V13.288H137.303V28H134.927ZM149.476 28.144C148.196 28.144 147.06 27.864 146.068 27.304C145.076 26.744 144.292 25.976 143.716 25C143.14 24.008 142.852 22.888 142.852 21.64C142.852 20.376 143.14 19.256 143.716 18.28C144.292 17.304 145.076 16.544 146.068 16C147.06 15.44 148.196 15.16 149.476 15.16C150.74 15.16 151.868 15.44 152.86 16C153.868 16.544 154.652 17.304 155.212 18.28C155.788 19.24 156.076 20.36 156.076 21.64C156.076 22.904 155.788 24.024 155.212 25C154.652 25.976 153.868 26.744 152.86 27.304C151.868 27.864 150.74 28.144 149.476 28.144ZM149.476 26.128C150.292 26.128 151.02 25.944 151.66 25.576C152.316 25.208 152.828 24.688 153.196 24.016C153.564 23.328 153.748 22.536 153.748 21.64C153.748 20.728 153.564 19.944 153.196 19.288C152.828 18.616 152.316 18.096 151.66 17.728C151.02 17.36 150.292 17.176 149.476 17.176C148.66 17.176 147.932 17.36 147.292 17.728C146.652 18.096 146.14 18.616 145.756 19.288C145.372 19.944 145.18 20.728 145.18 21.64C145.18 22.536 145.372 23.328 145.756 24.016C146.14 24.688 146.652 25.208 147.292 25.576C147.932 25.944 148.66 26.128 149.476 26.128ZM161.599 28L156.871 15.28H159.055L163.255 26.8H162.223L166.591 15.28H168.535L172.807 26.8H171.799L176.095 15.28H178.159L173.407 28H171.199L167.191 17.488H167.863L163.807 28H161.599ZM187.289 15.16C188.329 15.16 189.241 15.36 190.025 15.76C190.825 16.16 191.449 16.768 191.897 17.584C192.345 18.4 192.569 19.432 192.569 20.68V28H190.265V20.944C190.265 19.712 189.961 18.784 189.353 18.16C188.761 17.536 187.921 17.224 186.833 17.224C186.017 17.224 185.305 17.384 184.697 17.704C184.089 18.024 183.617 18.496 183.281 19.12C182.961 19.744 182.801 20.52 182.801 21.448V28H180.497V15.28H182.705V18.712L182.345 17.8C182.761 16.968 183.401 16.32 184.265 15.856C185.129 15.392 186.137 15.16 187.289 15.16Z" fill="#2D2D2D"/>
</svg>
